<svg xmlns="http://www.w3.org/2000/svg" xmlns:xlink="http://www.w3.org/1999/xlink" width="2000" zoomAndPan="magnify" viewBox="0 0 1500 1499.999933" height="2000" preserveAspectRatio="xMidYMid meet" version="1.0"><defs><g/><clipPath id="ca02de5894"><path d="M 569 227.351562 L 931 227.351562 L 931 590 L 569 590 Z M 569 227.351562 " clip-rule="nonzero"/></clipPath><clipPath id="3aa3c0a48b"><path d="M 457.636719 309 L 1042.636719 309 L 1042.636719 827 L 457.636719 827 Z M 457.636719 309 " clip-rule="nonzero"/></clipPath></defs><g clip-path="url(#ca02de5894)"><path fill="#c4af66" d="M 930.941406 408.777344 C 930.941406 508.722656 849.917969 589.742188 749.972656 589.742188 C 650.027344 589.742188 569.007812 508.722656 569.007812 408.777344 C 569.007812 308.832031 650.027344 227.808594 749.972656 227.808594 C 849.917969 227.808594 930.941406 308.832031 930.941406 408.777344 Z M 930.941406 408.777344 " fill-opacity="1" fill-rule="nonzero"/></g><g clip-path="url(#3aa3c0a48b)"><path fill="#000000" d="M 1037.269531 816.804688 L 946.9375 816.804688 L 946.9375 592.242188 C 946.9375 590.804688 946.320312 589.433594 945.246094 588.476562 C 944.167969 587.519531 942.734375 587.058594 941.304688 587.238281 L 816.242188 602.082031 L 816.242188 399.140625 C 816.242188 397.226562 815.15625 395.480469 813.441406 394.628906 L 642.710938 309.851562 C 641.152344 309.074219 639.296875 309.164062 637.816406 310.082031 C 636.332031 311 635.429688 312.621094 635.429688 314.367188 L 635.429688 438.941406 L 555.242188 492.683594 C 553.847656 493.621094 553.007812 495.1875 553.007812 496.871094 L 553.007812 816.804688 L 462.675781 816.804688 C 459.894531 816.804688 457.636719 819.0625 457.636719 821.847656 C 457.636719 824.628906 459.894531 826.886719 462.675781 826.886719 L 558.050781 826.886719 C 560.832031 826.886719 563.089844 824.628906 563.089844 821.847656 L 563.089844 499.558594 L 635.429688 451.074219 L 635.429688 821.847656 C 635.429688 824.628906 637.6875 826.886719 640.46875 826.886719 L 668.730469 826.886719 C 671.511719 826.886719 673.769531 824.628906 673.769531 821.847656 L 673.769531 422.691406 C 673.769531 420.828125 672.742188 419.121094 671.101562 418.246094 C 669.460938 417.367188 667.46875 417.46875 665.921875 418.503906 L 645.511719 432.1875 L 645.511719 322.496094 L 806.160156 402.265625 L 806.160156 603.277344 L 782.5625 606.078125 C 780.027344 606.378906 778.117188 608.53125 778.117188 611.082031 L 778.117188 821.847656 C 778.117188 824.628906 780.375 826.886719 783.160156 826.886719 L 811.199219 826.886719 C 813.984375 826.886719 816.242188 824.628906 816.242188 821.847656 L 816.242188 612.230469 L 936.859375 597.917969 L 936.859375 821.847656 C 936.859375 824.628906 939.113281 826.886719 941.898438 826.886719 L 1037.269531 826.886719 C 1040.054688 826.886719 1042.3125 824.628906 1042.3125 821.847656 C 1042.3125 819.0625 1040.054688 816.804688 1037.269531 816.804688 Z M 663.691406 816.804688 L 645.511719 816.804688 L 645.511719 444.320312 L 663.691406 432.136719 Z M 806.160156 613.425781 L 806.160156 816.804688 L 788.199219 816.804688 L 788.199219 615.558594 Z M 806.160156 613.425781 " fill-opacity="1" fill-rule="nonzero"/></g><g fill="#000000" fill-opacity="1"><g transform="translate(364.757814, 974.260624)"><g><path d="M 55.203125 0 L 40.90625 -20.5 C 40.300781 -20.4375 39.398438 -20.40625 38.203125 -20.40625 L 22.40625 -20.40625 L 22.40625 0 L 9.40625 0 L 9.40625 -70 L 38.203125 -70 C 44.265625 -70 49.546875 -69 54.046875 -67 C 58.546875 -65 61.992188 -62.128906 64.390625 -58.390625 C 66.796875 -54.660156 68 -50.226562 68 -45.09375 C 68 -39.832031 66.710938 -35.300781 64.140625 -31.5 C 61.578125 -27.695312 57.894531 -24.863281 53.09375 -23 L 69.203125 0 Z M 54.90625 -45.09375 C 54.90625 -49.5625 53.4375 -52.992188 50.5 -55.390625 C 47.5625 -57.796875 43.257812 -59 37.59375 -59 L 22.40625 -59 L 22.40625 -31.09375 L 37.59375 -31.09375 C 43.257812 -31.09375 47.5625 -32.3125 50.5 -34.75 C 53.4375 -37.1875 54.90625 -40.632812 54.90625 -45.09375 Z M 54.90625 -45.09375 "/></g></g></g><g fill="#000000" fill-opacity="1"><g transform="translate(437.854999, 974.260624)"><g><path d="M 58.40625 -26.40625 C 58.40625 -25.53125 58.335938 -24.296875 58.203125 -22.703125 L 16.296875 -22.703125 C 17.035156 -18.765625 18.953125 -15.644531 22.046875 -13.34375 C 25.148438 -11.050781 29 -9.90625 33.59375 -9.90625 C 39.46875 -9.90625 44.300781 -11.835938 48.09375 -15.703125 L 54.796875 -8 C 52.398438 -5.132812 49.367188 -2.96875 45.703125 -1.5 C 42.035156 -0.03125 37.898438 0.703125 33.296875 0.703125 C 27.429688 0.703125 22.265625 -0.460938 17.796875 -2.796875 C 13.328125 -5.128906 9.875 -8.378906 7.4375 -12.546875 C 5.007812 -16.710938 3.796875 -21.429688 3.796875 -26.703125 C 3.796875 -31.898438 4.976562 -36.582031 7.34375 -40.75 C 9.71875 -44.914062 13.003906 -48.164062 17.203125 -50.5 C 21.398438 -52.832031 26.132812 -54 31.40625 -54 C 36.601562 -54 41.25 -52.847656 45.34375 -50.546875 C 49.445312 -48.242188 52.648438 -45.007812 54.953125 -40.84375 C 57.253906 -36.675781 58.40625 -31.863281 58.40625 -26.40625 Z M 31.40625 -44 C 27.40625 -44 24.019531 -42.816406 21.25 -40.453125 C 18.476562 -38.085938 16.796875 -34.9375 16.203125 -31 L 46.5 -31 C 45.96875 -34.863281 44.332031 -37.992188 41.59375 -40.390625 C 38.863281 -42.796875 35.46875 -44 31.40625 -44 Z M 31.40625 -44 "/></g></g></g><g fill="#000000" fill-opacity="1"><g transform="translate(500.052602, 974.260624)"><g><path d="M 24.703125 0.703125 C 20.367188 0.703125 16.132812 0.132812 12 -1 C 7.863281 -2.132812 4.5625 -3.566406 2.09375 -5.296875 L 6.90625 -14.796875 C 9.300781 -13.203125 12.179688 -11.921875 15.546875 -10.953125 C 18.910156 -9.984375 22.226562 -9.5 25.5 -9.5 C 32.96875 -9.5 36.703125 -11.46875 36.703125 -15.40625 C 36.703125 -17.269531 35.75 -18.566406 33.84375 -19.296875 C 31.945312 -20.035156 28.898438 -20.738281 24.703125 -21.40625 C 20.296875 -22.070312 16.707031 -22.835938 13.9375 -23.703125 C 11.175781 -24.566406 8.78125 -26.082031 6.75 -28.25 C 4.71875 -30.414062 3.703125 -33.429688 3.703125 -37.296875 C 3.703125 -42.367188 5.816406 -46.421875 10.046875 -49.453125 C 14.285156 -52.484375 20.003906 -54 27.203125 -54 C 30.867188 -54 34.535156 -53.582031 38.203125 -52.75 C 41.867188 -51.914062 44.867188 -50.800781 47.203125 -49.40625 L 42.40625 -39.90625 C 37.863281 -42.570312 32.757812 -43.90625 27.09375 -43.90625 C 23.425781 -43.90625 20.644531 -43.351562 18.75 -42.25 C 16.851562 -41.144531 15.90625 -39.695312 15.90625 -37.90625 C 15.90625 -35.90625 16.921875 -34.488281 18.953125 -33.65625 C 20.984375 -32.820312 24.132812 -32.035156 28.40625 -31.296875 C 32.664062 -30.628906 36.160156 -29.863281 38.890625 -29 C 41.628906 -28.132812 43.984375 -26.664062 45.953125 -24.59375 C 47.921875 -22.53125 48.90625 -19.597656 48.90625 -15.796875 C 48.90625 -10.796875 46.738281 -6.796875 42.40625 -3.796875 C 38.070312 -0.796875 32.171875 0.703125 24.703125 0.703125 Z M 24.703125 0.703125 "/></g></g></g><g fill="#000000" fill-opacity="1"><g transform="translate(551.550611, 974.260624)"><g><path d="M 32.203125 0.703125 C 26.796875 0.703125 21.925781 -0.460938 17.59375 -2.796875 C 13.257812 -5.128906 9.875 -8.378906 7.4375 -12.546875 C 5.007812 -16.710938 3.796875 -21.429688 3.796875 -26.703125 C 3.796875 -31.960938 5.007812 -36.660156 7.4375 -40.796875 C 9.875 -44.929688 13.257812 -48.164062 17.59375 -50.5 C 21.925781 -52.832031 26.796875 -54 32.203125 -54 C 37.671875 -54 42.570312 -52.832031 46.90625 -50.5 C 51.238281 -48.164062 54.617188 -44.929688 57.046875 -40.796875 C 59.484375 -36.660156 60.703125 -31.960938 60.703125 -26.703125 C 60.703125 -21.429688 59.484375 -16.710938 57.046875 -12.546875 C 54.617188 -8.378906 51.238281 -5.128906 46.90625 -2.796875 C 42.570312 -0.460938 37.671875 0.703125 32.203125 0.703125 Z M 32.203125 -10 C 36.796875 -10 40.59375 -11.53125 43.59375 -14.59375 C 46.59375 -17.664062 48.09375 -21.703125 48.09375 -26.703125 C 48.09375 -31.703125 46.59375 -35.734375 43.59375 -38.796875 C 40.59375 -41.867188 36.796875 -43.40625 32.203125 -43.40625 C 27.597656 -43.40625 23.8125 -41.867188 20.84375 -38.796875 C 17.882812 -35.734375 16.40625 -31.703125 16.40625 -26.703125 C 16.40625 -21.703125 17.882812 -17.664062 20.84375 -14.59375 C 23.8125 -11.53125 27.597656 -10 32.203125 -10 Z M 32.203125 -10 "/></g></g></g><g fill="#000000" fill-opacity="1"><g transform="translate(616.048122, 974.260624)"><g><path d="M 8.203125 -74.203125 L 20.703125 -74.203125 L 20.703125 0 L 8.203125 0 Z M 8.203125 -74.203125 "/></g></g></g><g fill="#000000" fill-opacity="1"><g transform="translate(644.947014, 974.260624)"><g><path d="M 58.203125 -53.40625 L 35.296875 0 L 22.40625 0 L -0.5 -53.40625 L 12.5 -53.40625 L 29.09375 -13.796875 L 46.203125 -53.40625 Z M 58.203125 -53.40625 "/></g></g></g><g fill="#000000" fill-opacity="1"><g transform="translate(702.744777, 974.260624)"><g><path d="M 58.40625 -26.40625 C 58.40625 -25.53125 58.335938 -24.296875 58.203125 -22.703125 L 16.296875 -22.703125 C 17.035156 -18.765625 18.953125 -15.644531 22.046875 -13.34375 C 25.148438 -11.050781 29 -9.90625 33.59375 -9.90625 C 39.46875 -9.90625 44.300781 -11.835938 48.09375 -15.703125 L 54.796875 -8 C 52.398438 -5.132812 49.367188 -2.96875 45.703125 -1.5 C 42.035156 -0.03125 37.898438 0.703125 33.296875 0.703125 C 27.429688 0.703125 22.265625 -0.460938 17.796875 -2.796875 C 13.328125 -5.128906 9.875 -8.378906 7.4375 -12.546875 C 5.007812 -16.710938 3.796875 -21.429688 3.796875 -26.703125 C 3.796875 -31.898438 4.976562 -36.582031 7.34375 -40.75 C 9.71875 -44.914062 13.003906 -48.164062 17.203125 -50.5 C 21.398438 -52.832031 26.132812 -54 31.40625 -54 C 36.601562 -54 41.25 -52.847656 45.34375 -50.546875 C 49.445312 -48.242188 52.648438 -45.007812 54.953125 -40.84375 C 57.253906 -36.675781 58.40625 -31.863281 58.40625 -26.40625 Z M 31.40625 -44 C 27.40625 -44 24.019531 -42.816406 21.25 -40.453125 C 18.476562 -38.085938 16.796875 -34.9375 16.203125 -31 L 46.5 -31 C 45.96875 -34.863281 44.332031 -37.992188 41.59375 -40.390625 C 38.863281 -42.796875 35.46875 -44 31.40625 -44 Z M 31.40625 -44 "/></g></g></g><g fill="#000000" fill-opacity="1"><g transform="translate(764.94238, 974.260624)"><g><path d="M 31.09375 1 C 25.695312 1 20.484375 0.230469 15.453125 -1.296875 C 10.421875 -2.828125 6.4375 -4.863281 3.5 -7.40625 L 8 -17.5 C 10.863281 -15.226562 14.378906 -13.375 18.546875 -11.9375 C 22.710938 -10.507812 26.894531 -9.796875 31.09375 -9.796875 C 36.300781 -9.796875 40.1875 -10.628906 42.75 -12.296875 C 45.3125 -13.960938 46.59375 -16.164062 46.59375 -18.90625 C 46.59375 -20.90625 45.875 -22.550781 44.4375 -23.84375 C 43.007812 -25.144531 41.195312 -26.160156 39 -26.890625 C 36.800781 -27.628906 33.800781 -28.46875 30 -29.40625 C 24.664062 -30.664062 20.347656 -31.925781 17.046875 -33.1875 C 13.742188 -34.457031 10.910156 -36.441406 8.546875 -39.140625 C 6.179688 -41.847656 5 -45.5 5 -50.09375 C 5 -53.96875 6.046875 -57.488281 8.140625 -60.65625 C 10.242188 -63.820312 13.410156 -66.335938 17.640625 -68.203125 C 21.878906 -70.066406 27.066406 -71 33.203125 -71 C 37.460938 -71 41.660156 -70.460938 45.796875 -69.390625 C 49.929688 -68.328125 53.5 -66.796875 56.5 -64.796875 L 52.40625 -54.703125 C 49.332031 -56.503906 46.128906 -57.867188 42.796875 -58.796875 C 39.460938 -59.734375 36.226562 -60.203125 33.09375 -60.203125 C 27.96875 -60.203125 24.15625 -59.332031 21.65625 -57.59375 C 19.15625 -55.863281 17.90625 -53.566406 17.90625 -50.703125 C 17.90625 -48.703125 18.617188 -47.066406 20.046875 -45.796875 C 21.484375 -44.535156 23.300781 -43.535156 25.5 -42.796875 C 27.695312 -42.066406 30.695312 -41.234375 34.5 -40.296875 C 39.695312 -39.097656 43.960938 -37.847656 47.296875 -36.546875 C 50.628906 -35.242188 53.476562 -33.257812 55.84375 -30.59375 C 58.21875 -27.925781 59.40625 -24.328125 59.40625 -19.796875 C 59.40625 -15.929688 58.351562 -12.429688 56.25 -9.296875 C 54.144531 -6.160156 50.957031 -3.660156 46.6875 -1.796875 C 42.425781 0.0664062 37.226562 1 31.09375 1 Z M 31.09375 1 "/></g></g></g><g fill="#000000" fill-opacity="1"><g transform="translate(827.839927, 974.260624)"><g><path d="M 40.296875 -2.90625 C 38.828125 -1.695312 37.039062 -0.789062 34.9375 -0.1875 C 32.84375 0.402344 30.628906 0.703125 28.296875 0.703125 C 22.429688 0.703125 17.898438 -0.828125 14.703125 -3.890625 C 11.503906 -6.960938 9.90625 -11.429688 9.90625 -17.296875 L 9.90625 -43 L 1.09375 -43 L 1.09375 -53 L 9.90625 -53 L 9.90625 -65.203125 L 22.40625 -65.203125 L 22.40625 -53 L 36.703125 -53 L 36.703125 -43 L 22.40625 -43 L 22.40625 -17.59375 C 22.40625 -15 23.035156 -13.015625 24.296875 -11.640625 C 25.566406 -10.273438 27.398438 -9.59375 29.796875 -9.59375 C 32.597656 -9.59375 34.929688 -10.328125 36.796875 -11.796875 Z M 40.296875 -2.90625 "/></g></g></g><g fill="#000000" fill-opacity="1"><g transform="translate(870.238315, 974.260624)"><g><path d="M 28.59375 -54 C 36.46875 -54 42.488281 -52.113281 46.65625 -48.34375 C 50.820312 -44.582031 52.90625 -38.898438 52.90625 -31.296875 L 52.90625 0 L 41.09375 0 L 41.09375 -6.5 C 39.5625 -4.164062 37.378906 -2.378906 34.546875 -1.140625 C 31.710938 0.0859375 28.296875 0.703125 24.296875 0.703125 C 20.296875 0.703125 16.796875 0.0195312 13.796875 -1.34375 C 10.796875 -2.71875 8.476562 -4.617188 6.84375 -7.046875 C 5.21875 -9.484375 4.40625 -12.234375 4.40625 -15.296875 C 4.40625 -20.097656 6.1875 -23.945312 9.75 -26.84375 C 13.3125 -29.75 18.925781 -31.203125 26.59375 -31.203125 L 40.40625 -31.203125 L 40.40625 -32 C 40.40625 -35.726562 39.285156 -38.59375 37.046875 -40.59375 C 34.816406 -42.59375 31.5 -43.59375 27.09375 -43.59375 C 24.09375 -43.59375 21.144531 -43.125 18.25 -42.1875 C 15.351562 -41.257812 12.90625 -39.960938 10.90625 -38.296875 L 6 -47.40625 C 8.800781 -49.53125 12.164062 -51.160156 16.09375 -52.296875 C 20.03125 -53.429688 24.195312 -54 28.59375 -54 Z M 26.90625 -8.40625 C 30.03125 -8.40625 32.8125 -9.117188 35.25 -10.546875 C 37.6875 -11.984375 39.40625 -14.035156 40.40625 -16.703125 L 40.40625 -22.90625 L 27.5 -22.90625 C 20.300781 -22.90625 16.703125 -20.535156 16.703125 -15.796875 C 16.703125 -13.535156 17.597656 -11.738281 19.390625 -10.40625 C 21.191406 -9.070312 23.695312 -8.40625 26.90625 -8.40625 Z M 26.90625 -8.40625 "/></g></g></g><g fill="#000000" fill-opacity="1"><g transform="translate(930.935988, 974.260624)"><g><path d="M 40.296875 -2.90625 C 38.828125 -1.695312 37.039062 -0.789062 34.9375 -0.1875 C 32.84375 0.402344 30.628906 0.703125 28.296875 0.703125 C 22.429688 0.703125 17.898438 -0.828125 14.703125 -3.890625 C 11.503906 -6.960938 9.90625 -11.429688 9.90625 -17.296875 L 9.90625 -43 L 1.09375 -43 L 1.09375 -53 L 9.90625 -53 L 9.90625 -65.203125 L 22.40625 -65.203125 L 22.40625 -53 L 36.703125 -53 L 36.703125 -43 L 22.40625 -43 L 22.40625 -17.59375 C 22.40625 -15 23.035156 -13.015625 24.296875 -11.640625 C 25.566406 -10.273438 27.398438 -9.59375 29.796875 -9.59375 C 32.597656 -9.59375 34.929688 -10.328125 36.796875 -11.796875 Z M 40.296875 -2.90625 "/></g></g></g><g fill="#000000" fill-opacity="1"><g transform="translate(973.33433, 974.260624)"><g><path d="M 8.203125 -53.40625 L 20.703125 -53.40625 L 20.703125 0 L 8.203125 0 Z M 14.5 -62.203125 C 12.226562 -62.203125 10.328125 -62.914062 8.796875 -64.34375 C 7.265625 -65.78125 6.5 -67.566406 6.5 -69.703125 C 6.5 -71.835938 7.265625 -73.617188 8.796875 -75.046875 C 10.328125 -76.484375 12.226562 -77.203125 14.5 -77.203125 C 16.769531 -77.203125 18.671875 -76.515625 20.203125 -75.140625 C 21.734375 -73.773438 22.5 -72.0625 22.5 -70 C 22.5 -67.800781 21.75 -65.953125 20.25 -64.453125 C 18.75 -62.953125 16.832031 -62.203125 14.5 -62.203125 Z M 14.5 -62.203125 "/></g></g></g><g fill="#000000" fill-opacity="1"><g transform="translate(1002.233223, 974.260624)"><g><path d="M 32.203125 0.703125 C 26.796875 0.703125 21.925781 -0.460938 17.59375 -2.796875 C 13.257812 -5.128906 9.875 -8.378906 7.4375 -12.546875 C 5.007812 -16.710938 3.796875 -21.429688 3.796875 -26.703125 C 3.796875 -31.960938 5.007812 -36.660156 7.4375 -40.796875 C 9.875 -44.929688 13.257812 -48.164062 17.59375 -50.5 C 21.925781 -52.832031 26.796875 -54 32.203125 -54 C 37.671875 -54 42.570312 -52.832031 46.90625 -50.5 C 51.238281 -48.164062 54.617188 -44.929688 57.046875 -40.796875 C 59.484375 -36.660156 60.703125 -31.960938 60.703125 -26.703125 C 60.703125 -21.429688 59.484375 -16.710938 57.046875 -12.546875 C 54.617188 -8.378906 51.238281 -5.128906 46.90625 -2.796875 C 42.570312 -0.460938 37.671875 0.703125 32.203125 0.703125 Z M 32.203125 -10 C 36.796875 -10 40.59375 -11.53125 43.59375 -14.59375 C 46.59375 -17.664062 48.09375 -21.703125 48.09375 -26.703125 C 48.09375 -31.703125 46.59375 -35.734375 43.59375 -38.796875 C 40.59375 -41.867188 36.796875 -43.40625 32.203125 -43.40625 C 27.597656 -43.40625 23.8125 -41.867188 20.84375 -38.796875 C 17.882812 -35.734375 16.40625 -31.703125 16.40625 -26.703125 C 16.40625 -21.703125 17.882812 -17.664062 20.84375 -14.59375 C 23.8125 -11.53125 27.597656 -10 32.203125 -10 Z M 32.203125 -10 "/></g></g></g><g fill="#000000" fill-opacity="1"><g transform="translate(1066.730745, 974.260624)"><g><path d="M 38.5 -54 C 45.226562 -54 50.625 -52.03125 54.6875 -48.09375 C 58.757812 -44.164062 60.796875 -38.332031 60.796875 -30.59375 L 60.796875 0 L 48.296875 0 L 48.296875 -29 C 48.296875 -33.664062 47.195312 -37.179688 45 -39.546875 C 42.800781 -41.910156 39.664062 -43.09375 35.59375 -43.09375 C 31 -43.09375 27.367188 -41.707031 24.703125 -38.9375 C 22.035156 -36.175781 20.703125 -32.195312 20.703125 -27 L 20.703125 0 L 8.203125 0 L 8.203125 -53.40625 L 20.09375 -53.40625 L 20.09375 -46.5 C 22.164062 -48.96875 24.765625 -50.832031 27.890625 -52.09375 C 31.023438 -53.363281 34.5625 -54 38.5 -54 Z M 38.5 -54 "/></g></g></g><g fill="#000000" fill-opacity="1"><g transform="translate(358.20235, 1064.605904)"><g><path d="M 9.40625 -31.796875 L 9.40625 -18.046875 L 27.5 -18.046875 L 27.5 -14.84375 L 9.40625 -14.84375 L 9.40625 0 L 5.703125 0 L 5.703125 -35 L 29.703125 -35 L 29.703125 -31.796875 Z M 9.40625 -31.796875 "/></g></g></g><g fill="#000000" fill-opacity="1"><g transform="translate(404.697448, 1064.605904)"><g><path d="M 14.15625 -26.5 C 17.582031 -26.5 20.210938 -25.640625 22.046875 -23.921875 C 23.878906 -22.203125 24.796875 -19.660156 24.796875 -16.296875 L 24.796875 0 L 21.40625 0 L 21.40625 -4.09375 C 20.601562 -2.726562 19.425781 -1.660156 17.875 -0.890625 C 16.320312 -0.128906 14.476562 0.25 12.34375 0.25 C 9.414062 0.25 7.082031 -0.445312 5.34375 -1.84375 C 3.613281 -3.25 2.75 -5.101562 2.75 -7.40625 C 2.75 -9.632812 3.554688 -11.429688 5.171875 -12.796875 C 6.785156 -14.160156 9.363281 -14.84375 12.90625 -14.84375 L 21.25 -14.84375 L 21.25 -16.453125 C 21.25 -18.710938 20.613281 -20.4375 19.34375 -21.625 C 18.082031 -22.8125 16.234375 -23.40625 13.796875 -23.40625 C 12.128906 -23.40625 10.53125 -23.128906 9 -22.578125 C 7.46875 -22.023438 6.148438 -21.265625 5.046875 -20.296875 L 3.453125 -22.953125 C 4.785156 -24.085938 6.382812 -24.960938 8.25 -25.578125 C 10.113281 -26.191406 12.082031 -26.5 14.15625 -26.5 Z M 12.90625 -2.546875 C 14.90625 -2.546875 16.617188 -3.003906 18.046875 -3.921875 C 19.484375 -4.835938 20.550781 -6.164062 21.25 -7.90625 L 21.25 -12.203125 L 13 -12.203125 C 8.5 -12.203125 6.25 -10.632812 6.25 -7.5 C 6.25 -5.96875 6.832031 -4.757812 8 -3.875 C 9.164062 -2.988281 10.800781 -2.546875 12.90625 -2.546875 Z M 12.90625 -2.546875 "/></g></g></g><g fill="#000000" fill-opacity="1"><g transform="translate(449.042876, 1064.605904)"><g><path d="M 15.84375 0.25 C 13.25 0.25 10.925781 -0.316406 8.875 -1.453125 C 6.820312 -2.585938 5.210938 -4.175781 4.046875 -6.21875 C 2.878906 -8.269531 2.296875 -10.582031 2.296875 -13.15625 C 2.296875 -15.71875 2.878906 -18.015625 4.046875 -20.046875 C 5.210938 -22.078125 6.820312 -23.660156 8.875 -24.796875 C 10.925781 -25.929688 13.25 -26.5 15.84375 -26.5 C 18.113281 -26.5 20.140625 -26.054688 21.921875 -25.171875 C 23.703125 -24.285156 25.113281 -22.992188 26.15625 -21.296875 L 23.5 -19.5 C 22.632812 -20.800781 21.535156 -21.773438 20.203125 -22.421875 C 18.867188 -23.078125 17.414062 -23.40625 15.84375 -23.40625 C 13.945312 -23.40625 12.238281 -22.976562 10.71875 -22.125 C 9.207031 -21.269531 8.023438 -20.0625 7.171875 -18.5 C 6.328125 -16.9375 5.90625 -15.15625 5.90625 -13.15625 C 5.90625 -11.113281 6.328125 -9.316406 7.171875 -7.765625 C 8.023438 -6.222656 9.207031 -5.023438 10.71875 -4.171875 C 12.238281 -3.328125 13.945312 -2.90625 15.84375 -2.90625 C 17.414062 -2.90625 18.867188 -3.21875 20.203125 -3.84375 C 21.535156 -4.476562 22.632812 -5.445312 23.5 -6.75 L 26.15625 -4.953125 C 25.113281 -3.253906 23.691406 -1.960938 21.890625 -1.078125 C 20.097656 -0.191406 18.082031 0.25 15.84375 0.25 Z M 15.84375 0.25 "/></g></g></g><g fill="#000000" fill-opacity="1"><g transform="translate(492.03852, 1064.605904)"><g><path d="M 4.953125 -26.296875 L 8.5 -26.296875 L 8.5 0 L 4.953125 0 Z M 6.75 -32.046875 C 6.019531 -32.046875 5.40625 -32.296875 4.90625 -32.796875 C 4.40625 -33.296875 4.15625 -33.894531 4.15625 -34.59375 C 4.15625 -35.257812 4.40625 -35.84375 4.90625 -36.34375 C 5.40625 -36.84375 6.019531 -37.09375 6.75 -37.09375 C 7.476562 -37.09375 8.09375 -36.851562 8.59375 -36.375 C 9.09375 -35.894531 9.34375 -35.320312 9.34375 -34.65625 C 9.34375 -33.914062 9.09375 -33.296875 8.59375 -32.796875 C 8.09375 -32.296875 7.476562 -32.046875 6.75 -32.046875 Z M 6.75 -32.046875 "/></g></g></g><g fill="#000000" fill-opacity="1"><g transform="translate(520.336438, 1064.605904)"><g><path d="M 4.953125 -37.09375 L 8.5 -37.09375 L 8.5 0 L 4.953125 0 Z M 4.953125 -37.09375 "/></g></g></g><g fill="#000000" fill-opacity="1"><g transform="translate(548.634355, 1064.605904)"><g><path d="M 4.953125 -26.296875 L 8.5 -26.296875 L 8.5 0 L 4.953125 0 Z M 6.75 -32.046875 C 6.019531 -32.046875 5.40625 -32.296875 4.90625 -32.796875 C 4.40625 -33.296875 4.15625 -33.894531 4.15625 -34.59375 C 4.15625 -35.257812 4.40625 -35.84375 4.90625 -36.34375 C 5.40625 -36.84375 6.019531 -37.09375 6.75 -37.09375 C 7.476562 -37.09375 8.09375 -36.851562 8.59375 -36.375 C 9.09375 -35.894531 9.34375 -35.320312 9.34375 -34.65625 C 9.34375 -33.914062 9.09375 -33.296875 8.59375 -32.796875 C 8.09375 -32.296875 7.476562 -32.046875 6.75 -32.046875 Z M 6.75 -32.046875 "/></g></g></g><g fill="#000000" fill-opacity="1"><g transform="translate(576.932273, 1064.605904)"><g><path d="M 18.796875 -1.59375 C 18.128906 -1 17.300781 -0.539062 16.3125 -0.21875 C 15.332031 0.0898438 14.3125 0.25 13.25 0.25 C 10.78125 0.25 8.878906 -0.414062 7.546875 -1.75 C 6.210938 -3.082031 5.546875 -4.96875 5.546875 -7.40625 L 5.546875 -23.296875 L 0.84375 -23.296875 L 0.84375 -26.296875 L 5.546875 -26.296875 L 5.546875 -32.046875 L 9.09375 -32.046875 L 9.09375 -26.296875 L 17.09375 -26.296875 L 17.09375 -23.296875 L 9.09375 -23.296875 L 9.09375 -7.59375 C 9.09375 -6.03125 9.484375 -4.835938 10.265625 -4.015625 C 11.054688 -3.203125 12.1875 -2.796875 13.65625 -2.796875 C 14.382812 -2.796875 15.085938 -2.910156 15.765625 -3.140625 C 16.453125 -3.378906 17.046875 -3.71875 17.546875 -4.15625 Z M 18.796875 -1.59375 "/></g></g></g><g fill="#000000" fill-opacity="1"><g transform="translate(612.079136, 1064.605904)"><g><path d="M 27.046875 -26.296875 L 13.90625 3.15625 C 12.832031 5.613281 11.59375 7.359375 10.1875 8.390625 C 8.789062 9.429688 7.113281 9.953125 5.15625 9.953125 C 3.882812 9.953125 2.695312 9.75 1.59375 9.34375 C 0.5 8.945312 -0.445312 8.347656 -1.25 7.546875 L 0.40625 4.90625 C 1.738281 6.238281 3.335938 6.90625 5.203125 6.90625 C 6.398438 6.90625 7.421875 6.570312 8.265625 5.90625 C 9.117188 5.238281 9.914062 4.101562 10.65625 2.5 L 11.796875 -0.046875 L 0.046875 -26.296875 L 3.75 -26.296875 L 13.65625 -3.953125 L 23.546875 -26.296875 Z M 27.046875 -26.296875 "/></g></g></g><g fill="#000000" fill-opacity="1"><g transform="translate(654.024956, 1064.605904)"><g/></g></g><g fill="#000000" fill-opacity="1"><g transform="translate(681.972914, 1064.605904)"><g><path d="M 30.75 0.546875 L 25.90625 -4.453125 C 22.9375 -1.285156 19.035156 0.296875 14.203125 0.296875 C 11.929688 0.296875 9.90625 -0.078125 8.125 -0.828125 C 6.34375 -1.578125 4.953125 -2.625 3.953125 -3.96875 C 2.953125 -5.320312 2.453125 -6.863281 2.453125 -8.59375 C 2.453125 -10.695312 3.117188 -12.582031 4.453125 -14.25 C 5.785156 -15.914062 8.050781 -17.664062 11.25 -19.5 C 9.582031 -21.226562 8.429688 -22.703125 7.796875 -23.921875 C 7.160156 -25.140625 6.84375 -26.429688 6.84375 -27.796875 C 6.84375 -30.035156 7.644531 -31.835938 9.25 -33.203125 C 10.851562 -34.566406 13.003906 -35.25 15.703125 -35.25 C 18.203125 -35.25 20.179688 -34.628906 21.640625 -33.390625 C 23.109375 -32.160156 23.84375 -30.460938 23.84375 -28.296875 C 23.84375 -26.566406 23.257812 -25.007812 22.09375 -23.625 C 20.925781 -22.238281 18.910156 -20.710938 16.046875 -19.046875 L 25.65625 -9.15625 C 26.71875 -11.050781 27.5 -13.300781 28 -15.90625 L 30.90625 -15 C 30.269531 -11.863281 29.234375 -9.179688 27.796875 -6.953125 L 32.796875 -1.796875 Z M 15.703125 -32.59375 C 13.960938 -32.59375 12.601562 -32.160156 11.625 -31.296875 C 10.644531 -30.429688 10.15625 -29.28125 10.15625 -27.84375 C 10.15625 -26.8125 10.421875 -25.828125 10.953125 -24.890625 C 11.484375 -23.960938 12.53125 -22.695312 14.09375 -21.09375 C 16.632812 -22.5625 18.382812 -23.8125 19.34375 -24.84375 C 20.3125 -25.882812 20.796875 -27.019531 20.796875 -28.25 C 20.796875 -29.582031 20.34375 -30.640625 19.4375 -31.421875 C 18.539062 -32.203125 17.296875 -32.59375 15.703125 -32.59375 Z M 14.40625 -2.65625 C 18.269531 -2.65625 21.398438 -3.96875 23.796875 -6.59375 L 13.25 -17.453125 C 10.476562 -15.878906 8.566406 -14.457031 7.515625 -13.1875 C 6.472656 -11.925781 5.953125 -10.515625 5.953125 -8.953125 C 5.953125 -7.046875 6.722656 -5.519531 8.265625 -4.375 C 9.816406 -3.226562 11.863281 -2.65625 14.40625 -2.65625 Z M 14.40625 -2.65625 "/></g></g></g><g fill="#000000" fill-opacity="1"><g transform="translate(730.267732, 1064.605904)"><g/></g></g><g fill="#000000" fill-opacity="1"><g transform="translate(758.215713, 1064.605904)"><g><path d="M 20.90625 0.296875 C 17.4375 0.296875 14.304688 -0.46875 11.515625 -2 C 8.734375 -3.53125 6.550781 -5.65625 4.96875 -8.375 C 3.382812 -11.09375 2.59375 -14.132812 2.59375 -17.5 C 2.59375 -20.863281 3.382812 -23.90625 4.96875 -26.625 C 6.550781 -29.34375 8.742188 -31.46875 11.546875 -33 C 14.347656 -34.53125 17.484375 -35.296875 20.953125 -35.296875 C 23.546875 -35.296875 25.941406 -34.863281 28.140625 -34 C 30.347656 -33.132812 32.21875 -31.867188 33.75 -30.203125 L 31.40625 -27.84375 C 28.664062 -30.613281 25.210938 -32 21.046875 -32 C 18.285156 -32 15.769531 -31.363281 13.5 -30.09375 C 11.226562 -28.832031 9.453125 -27.097656 8.171875 -24.890625 C 6.890625 -22.691406 6.25 -20.226562 6.25 -17.5 C 6.25 -14.769531 6.890625 -12.300781 8.171875 -10.09375 C 9.453125 -7.894531 11.226562 -6.160156 13.5 -4.890625 C 15.769531 -3.628906 18.285156 -3 21.046875 -3 C 25.242188 -3 28.695312 -4.398438 31.40625 -7.203125 L 33.75 -4.84375 C 32.21875 -3.175781 30.34375 -1.898438 28.125 -1.015625 C 25.90625 -0.140625 23.5 0.296875 20.90625 0.296875 Z M 20.90625 0.296875 "/></g></g></g><g fill="#000000" fill-opacity="1"><g transform="translate(809.010126, 1064.605904)"><g><path d="M 15.703125 0.25 C 13.171875 0.25 10.882812 -0.320312 8.84375 -1.46875 C 6.8125 -2.625 5.210938 -4.21875 4.046875 -6.25 C 2.878906 -8.28125 2.296875 -10.582031 2.296875 -13.15625 C 2.296875 -15.71875 2.878906 -18.015625 4.046875 -20.046875 C 5.210938 -22.078125 6.8125 -23.660156 8.84375 -24.796875 C 10.882812 -25.929688 13.171875 -26.5 15.703125 -26.5 C 18.234375 -26.5 20.515625 -25.929688 22.546875 -24.796875 C 24.578125 -23.660156 26.164062 -22.078125 27.3125 -20.046875 C 28.46875 -18.015625 29.046875 -15.71875 29.046875 -13.15625 C 29.046875 -10.582031 28.46875 -8.28125 27.3125 -6.25 C 26.164062 -4.21875 24.578125 -2.625 22.546875 -1.46875 C 20.515625 -0.320312 18.234375 0.25 15.703125 0.25 Z M 15.703125 -2.90625 C 17.566406 -2.90625 19.238281 -3.328125 20.71875 -4.171875 C 22.207031 -5.023438 23.367188 -6.234375 24.203125 -7.796875 C 25.035156 -9.367188 25.453125 -11.15625 25.453125 -13.15625 C 25.453125 -15.15625 25.035156 -16.9375 24.203125 -18.5 C 23.367188 -20.0625 22.207031 -21.269531 20.71875 -22.125 C 19.238281 -22.976562 17.566406 -23.40625 15.703125 -23.40625 C 13.835938 -23.40625 12.160156 -22.976562 10.671875 -22.125 C 9.191406 -21.269531 8.023438 -20.0625 7.171875 -18.5 C 6.328125 -16.9375 5.90625 -15.15625 5.90625 -13.15625 C 5.90625 -11.15625 6.328125 -9.367188 7.171875 -7.796875 C 8.023438 -6.234375 9.191406 -5.023438 10.671875 -4.171875 C 12.160156 -3.328125 13.835938 -2.90625 15.703125 -2.90625 Z M 15.703125 -2.90625 "/></g></g></g><g fill="#000000" fill-opacity="1"><g transform="translate(855.205298, 1064.605904)"><g><path d="M 37.75 -26.5 C 41.050781 -26.5 43.640625 -25.546875 45.515625 -23.640625 C 47.398438 -21.742188 48.34375 -18.945312 48.34375 -15.25 L 48.34375 0 L 44.796875 0 L 44.796875 -14.90625 C 44.796875 -17.632812 44.132812 -19.710938 42.8125 -21.140625 C 41.5 -22.578125 39.644531 -23.296875 37.25 -23.296875 C 34.519531 -23.296875 32.367188 -22.453125 30.796875 -20.765625 C 29.234375 -19.085938 28.453125 -16.765625 28.453125 -13.796875 L 28.453125 0 L 24.90625 0 L 24.90625 -14.90625 C 24.90625 -17.632812 24.242188 -19.710938 22.921875 -21.140625 C 21.609375 -22.578125 19.734375 -23.296875 17.296875 -23.296875 C 14.597656 -23.296875 12.457031 -22.453125 10.875 -20.765625 C 9.289062 -19.085938 8.5 -16.765625 8.5 -13.796875 L 8.5 0 L 4.953125 0 L 4.953125 -26.296875 L 8.34375 -26.296875 L 8.34375 -21.5 C 9.28125 -23.101562 10.582031 -24.335938 12.25 -25.203125 C 13.914062 -26.066406 15.832031 -26.5 18 -26.5 C 20.195312 -26.5 22.101562 -26.03125 23.71875 -25.09375 C 25.34375 -24.164062 26.550781 -22.785156 27.34375 -20.953125 C 28.3125 -22.679688 29.703125 -24.035156 31.515625 -25.015625 C 33.335938 -26.003906 35.414062 -26.5 37.75 -26.5 Z M 37.75 -26.5 "/></g></g></g><g fill="#000000" fill-opacity="1"><g transform="translate(923.097046, 1064.605904)"><g><path d="M 18.5 -26.5 C 20.96875 -26.5 23.203125 -25.941406 25.203125 -24.828125 C 27.203125 -23.710938 28.765625 -22.132812 29.890625 -20.09375 C 31.023438 -18.0625 31.59375 -15.75 31.59375 -13.15625 C 31.59375 -10.519531 31.023438 -8.179688 29.890625 -6.140625 C 28.765625 -4.109375 27.207031 -2.535156 25.21875 -1.421875 C 23.238281 -0.304688 21 0.25 18.5 0.25 C 16.363281 0.25 14.4375 -0.191406 12.71875 -1.078125 C 11.007812 -1.960938 9.601562 -3.253906 8.5 -4.953125 L 8.5 9.703125 L 4.953125 9.703125 L 4.953125 -26.296875 L 8.34375 -26.296875 L 8.34375 -21.09375 C 9.414062 -22.832031 10.828125 -24.164062 12.578125 -25.09375 C 14.328125 -26.03125 16.300781 -26.5 18.5 -26.5 Z M 18.25 -2.90625 C 20.082031 -2.90625 21.75 -3.328125 23.25 -4.171875 C 24.75 -5.023438 25.921875 -6.234375 26.765625 -7.796875 C 27.617188 -9.367188 28.046875 -11.15625 28.046875 -13.15625 C 28.046875 -15.15625 27.617188 -16.925781 26.765625 -18.46875 C 25.921875 -20.019531 24.75 -21.226562 23.25 -22.09375 C 21.75 -22.96875 20.082031 -23.40625 18.25 -23.40625 C 16.382812 -23.40625 14.707031 -22.96875 13.21875 -22.09375 C 11.738281 -21.226562 10.570312 -20.019531 9.71875 -18.46875 C 8.875 -16.925781 8.453125 -15.15625 8.453125 -13.15625 C 8.453125 -11.15625 8.875 -9.367188 9.71875 -7.796875 C 10.570312 -6.234375 11.738281 -5.023438 13.21875 -4.171875 C 14.707031 -3.328125 16.382812 -2.90625 18.25 -2.90625 Z M 18.25 -2.90625 "/></g></g></g><g fill="#000000" fill-opacity="1"><g transform="translate(971.841823, 1064.605904)"><g><path d="M 4.953125 -37.09375 L 8.5 -37.09375 L 8.5 0 L 4.953125 0 Z M 4.953125 -37.09375 "/></g></g></g><g fill="#000000" fill-opacity="1"><g transform="translate(1000.139764, 1064.605904)"><g><path d="M 14.15625 -26.5 C 17.582031 -26.5 20.210938 -25.640625 22.046875 -23.921875 C 23.878906 -22.203125 24.796875 -19.660156 24.796875 -16.296875 L 24.796875 0 L 21.40625 0 L 21.40625 -4.09375 C 20.601562 -2.726562 19.425781 -1.660156 17.875 -0.890625 C 16.320312 -0.128906 14.476562 0.25 12.34375 0.25 C 9.414062 0.25 7.082031 -0.445312 5.34375 -1.84375 C 3.613281 -3.25 2.75 -5.101562 2.75 -7.40625 C 2.75 -9.632812 3.554688 -11.429688 5.171875 -12.796875 C 6.785156 -14.160156 9.363281 -14.84375 12.90625 -14.84375 L 21.25 -14.84375 L 21.25 -16.453125 C 21.25 -18.710938 20.613281 -20.4375 19.34375 -21.625 C 18.082031 -22.8125 16.234375 -23.40625 13.796875 -23.40625 C 12.128906 -23.40625 10.53125 -23.128906 9 -22.578125 C 7.46875 -22.023438 6.148438 -21.265625 5.046875 -20.296875 L 3.453125 -22.953125 C 4.785156 -24.085938 6.382812 -24.960938 8.25 -25.578125 C 10.113281 -26.191406 12.082031 -26.5 14.15625 -26.5 Z M 12.90625 -2.546875 C 14.90625 -2.546875 16.617188 -3.003906 18.046875 -3.921875 C 19.484375 -4.835938 20.550781 -6.164062 21.25 -7.90625 L 21.25 -12.203125 L 13 -12.203125 C 8.5 -12.203125 6.25 -10.632812 6.25 -7.5 C 6.25 -5.96875 6.832031 -4.757812 8 -3.875 C 9.164062 -2.988281 10.800781 -2.546875 12.90625 -2.546875 Z M 12.90625 -2.546875 "/></g></g></g><g fill="#000000" fill-opacity="1"><g transform="translate(1044.485158, 1064.605904)"><g><path d="M 4.953125 -26.296875 L 8.5 -26.296875 L 8.5 0 L 4.953125 0 Z M 6.75 -32.046875 C 6.019531 -32.046875 5.40625 -32.296875 4.90625 -32.796875 C 4.40625 -33.296875 4.15625 -33.894531 4.15625 -34.59375 C 4.15625 -35.257812 4.40625 -35.84375 4.90625 -36.34375 C 5.40625 -36.84375 6.019531 -37.09375 6.75 -37.09375 C 7.476562 -37.09375 8.09375 -36.851562 8.59375 -36.375 C 9.09375 -35.894531 9.34375 -35.320312 9.34375 -34.65625 C 9.34375 -33.914062 9.09375 -33.296875 8.59375 -32.796875 C 8.09375 -32.296875 7.476562 -32.046875 6.75 -32.046875 Z M 6.75 -32.046875 "/></g></g></g><g fill="#000000" fill-opacity="1"><g transform="translate(1072.783099, 1064.605904)"><g><path d="M 18.34375 -26.5 C 21.644531 -26.5 24.269531 -25.539062 26.21875 -23.625 C 28.175781 -21.707031 29.15625 -18.914062 29.15625 -15.25 L 29.15625 0 L 25.59375 0 L 25.59375 -14.90625 C 25.59375 -17.632812 24.910156 -19.710938 23.546875 -21.140625 C 22.179688 -22.578125 20.234375 -23.296875 17.703125 -23.296875 C 14.867188 -23.296875 12.625 -22.453125 10.96875 -20.765625 C 9.320312 -19.085938 8.5 -16.765625 8.5 -13.796875 L 8.5 0 L 4.953125 0 L 4.953125 -26.296875 L 8.34375 -26.296875 L 8.34375 -21.453125 C 9.3125 -23.046875 10.65625 -24.285156 12.375 -25.171875 C 14.09375 -26.054688 16.082031 -26.5 18.34375 -26.5 Z M 18.34375 -26.5 "/></g></g></g><g fill="#000000" fill-opacity="1"><g transform="translate(1121.477843, 1064.605904)"><g><path d="M 18.796875 -1.59375 C 18.128906 -1 17.300781 -0.539062 16.3125 -0.21875 C 15.332031 0.0898438 14.3125 0.25 13.25 0.25 C 10.78125 0.25 8.878906 -0.414062 7.546875 -1.75 C 6.210938 -3.082031 5.546875 -4.96875 5.546875 -7.40625 L 5.546875 -23.296875 L 0.84375 -23.296875 L 0.84375 -26.296875 L 5.546875 -26.296875 L 5.546875 -32.046875 L 9.09375 -32.046875 L 9.09375 -26.296875 L 17.09375 -26.296875 L 17.09375 -23.296875 L 9.09375 -23.296875 L 9.09375 -7.59375 C 9.09375 -6.03125 9.484375 -4.835938 10.265625 -4.015625 C 11.054688 -3.203125 12.1875 -2.796875 13.65625 -2.796875 C 14.382812 -2.796875 15.085938 -2.910156 15.765625 -3.140625 C 16.453125 -3.378906 17.046875 -3.71875 17.546875 -4.15625 Z M 18.796875 -1.59375 "/></g></g></g><g fill="#000000" fill-opacity="1"><g transform="translate(511.940614, 1134.355898)"><g><path d="M 42.046875 -35 L 42.046875 0 L 38.5 0 L 38.5 -28 L 24.75 -4.453125 L 23 -4.453125 L 9.25 -27.84375 L 9.25 0 L 5.703125 0 L 5.703125 -35 L 8.75 -35 L 23.953125 -9.046875 L 39 -35 Z M 42.046875 -35 "/></g></g></g><g fill="#000000" fill-opacity="1"><g transform="translate(574.533222, 1134.355898)"><g><path d="M 14.15625 -26.5 C 17.582031 -26.5 20.210938 -25.640625 22.046875 -23.921875 C 23.878906 -22.203125 24.796875 -19.660156 24.796875 -16.296875 L 24.796875 0 L 21.40625 0 L 21.40625 -4.09375 C 20.601562 -2.726562 19.425781 -1.660156 17.875 -0.890625 C 16.320312 -0.128906 14.476562 0.25 12.34375 0.25 C 9.414062 0.25 7.082031 -0.445312 5.34375 -1.84375 C 3.613281 -3.25 2.75 -5.101562 2.75 -7.40625 C 2.75 -9.632812 3.554688 -11.429688 5.171875 -12.796875 C 6.785156 -14.160156 9.363281 -14.84375 12.90625 -14.84375 L 21.25 -14.84375 L 21.25 -16.453125 C 21.25 -18.710938 20.613281 -20.4375 19.34375 -21.625 C 18.082031 -22.8125 16.234375 -23.40625 13.796875 -23.40625 C 12.128906 -23.40625 10.53125 -23.128906 9 -22.578125 C 7.46875 -22.023438 6.148438 -21.265625 5.046875 -20.296875 L 3.453125 -22.953125 C 4.785156 -24.085938 6.382812 -24.960938 8.25 -25.578125 C 10.113281 -26.191406 12.082031 -26.5 14.15625 -26.5 Z M 12.90625 -2.546875 C 14.90625 -2.546875 16.617188 -3.003906 18.046875 -3.921875 C 19.484375 -4.835938 20.550781 -6.164062 21.25 -7.90625 L 21.25 -12.203125 L 13 -12.203125 C 8.5 -12.203125 6.25 -10.632812 6.25 -7.5 C 6.25 -5.96875 6.832031 -4.757812 8 -3.875 C 9.164062 -2.988281 10.800781 -2.546875 12.90625 -2.546875 Z M 12.90625 -2.546875 "/></g></g></g><g fill="#000000" fill-opacity="1"><g transform="translate(618.878651, 1134.355898)"><g><path d="M 18.34375 -26.5 C 21.644531 -26.5 24.269531 -25.539062 26.21875 -23.625 C 28.175781 -21.707031 29.15625 -18.914062 29.15625 -15.25 L 29.15625 0 L 25.59375 0 L 25.59375 -14.90625 C 25.59375 -17.632812 24.910156 -19.710938 23.546875 -21.140625 C 22.179688 -22.578125 20.234375 -23.296875 17.703125 -23.296875 C 14.867188 -23.296875 12.625 -22.453125 10.96875 -20.765625 C 9.320312 -19.085938 8.5 -16.765625 8.5 -13.796875 L 8.5 0 L 4.953125 0 L 4.953125 -26.296875 L 8.34375 -26.296875 L 8.34375 -21.453125 C 9.3125 -23.046875 10.65625 -24.285156 12.375 -25.171875 C 14.09375 -26.054688 16.082031 -26.5 18.34375 -26.5 Z M 18.34375 -26.5 "/></g></g></g><g fill="#000000" fill-opacity="1"><g transform="translate(667.573406, 1134.355898)"><g><path d="M 14.15625 -26.5 C 17.582031 -26.5 20.210938 -25.640625 22.046875 -23.921875 C 23.878906 -22.203125 24.796875 -19.660156 24.796875 -16.296875 L 24.796875 0 L 21.40625 0 L 21.40625 -4.09375 C 20.601562 -2.726562 19.425781 -1.660156 17.875 -0.890625 C 16.320312 -0.128906 14.476562 0.25 12.34375 0.25 C 9.414062 0.25 7.082031 -0.445312 5.34375 -1.84375 C 3.613281 -3.25 2.75 -5.101562 2.75 -7.40625 C 2.75 -9.632812 3.554688 -11.429688 5.171875 -12.796875 C 6.785156 -14.160156 9.363281 -14.84375 12.90625 -14.84375 L 21.25 -14.84375 L 21.25 -16.453125 C 21.25 -18.710938 20.613281 -20.4375 19.34375 -21.625 C 18.082031 -22.8125 16.234375 -23.40625 13.796875 -23.40625 C 12.128906 -23.40625 10.53125 -23.128906 9 -22.578125 C 7.46875 -22.023438 6.148438 -21.265625 5.046875 -20.296875 L 3.453125 -22.953125 C 4.785156 -24.085938 6.382812 -24.960938 8.25 -25.578125 C 10.113281 -26.191406 12.082031 -26.5 14.15625 -26.5 Z M 12.90625 -2.546875 C 14.90625 -2.546875 16.617188 -3.003906 18.046875 -3.921875 C 19.484375 -4.835938 20.550781 -6.164062 21.25 -7.90625 L 21.25 -12.203125 L 13 -12.203125 C 8.5 -12.203125 6.25 -10.632812 6.25 -7.5 C 6.25 -5.96875 6.832031 -4.757812 8 -3.875 C 9.164062 -2.988281 10.800781 -2.546875 12.90625 -2.546875 Z M 12.90625 -2.546875 "/></g></g></g><g fill="#000000" fill-opacity="1"><g transform="translate(711.918823, 1134.355898)"><g><path d="M 29.296875 -26.296875 L 29.296875 -3.203125 C 29.296875 1.261719 28.203125 4.570312 26.015625 6.71875 C 23.835938 8.875 20.550781 9.953125 16.15625 9.953125 C 13.71875 9.953125 11.40625 9.59375 9.21875 8.875 C 7.039062 8.15625 5.269531 7.164062 3.90625 5.90625 L 5.703125 3.203125 C 6.960938 4.335938 8.5 5.21875 10.3125 5.84375 C 12.132812 6.476562 14.046875 6.796875 16.046875 6.796875 C 19.378906 6.796875 21.828125 6.019531 23.390625 4.46875 C 24.960938 2.925781 25.75 0.519531 25.75 -2.75 L 25.75 -6.09375 C 24.644531 -4.425781 23.203125 -3.160156 21.421875 -2.296875 C 19.640625 -1.429688 17.664062 -1 15.5 -1 C 13.03125 -1 10.785156 -1.539062 8.765625 -2.625 C 6.753906 -3.707031 5.171875 -5.222656 4.015625 -7.171875 C 2.867188 -9.117188 2.296875 -11.328125 2.296875 -13.796875 C 2.296875 -16.265625 2.867188 -18.460938 4.015625 -20.390625 C 5.171875 -22.328125 6.75 -23.828125 8.75 -24.890625 C 10.75 -25.960938 13 -26.5 15.5 -26.5 C 17.726562 -26.5 19.742188 -26.046875 21.546875 -25.140625 C 23.347656 -24.242188 24.800781 -22.945312 25.90625 -21.25 L 25.90625 -26.296875 Z M 15.84375 -4.15625 C 17.75 -4.15625 19.46875 -4.5625 21 -5.375 C 22.53125 -6.1875 23.71875 -7.328125 24.5625 -8.796875 C 25.414062 -10.265625 25.84375 -11.929688 25.84375 -13.796875 C 25.84375 -15.660156 25.414062 -17.316406 24.5625 -18.765625 C 23.71875 -20.222656 22.535156 -21.359375 21.015625 -22.171875 C 19.503906 -22.992188 17.78125 -23.40625 15.84375 -23.40625 C 13.945312 -23.40625 12.238281 -23.003906 10.71875 -22.203125 C 9.207031 -21.398438 8.023438 -20.265625 7.171875 -18.796875 C 6.328125 -17.328125 5.90625 -15.660156 5.90625 -13.796875 C 5.90625 -11.929688 6.328125 -10.265625 7.171875 -8.796875 C 8.023438 -7.328125 9.207031 -6.1875 10.71875 -5.375 C 12.238281 -4.5625 13.945312 -4.15625 15.84375 -4.15625 Z M 15.84375 -4.15625 "/></g></g></g><g fill="#000000" fill-opacity="1"><g transform="translate(761.063526, 1134.355898)"><g><path d="M 27.84375 -12.046875 L 5.84375 -12.046875 C 6.050781 -9.316406 7.101562 -7.109375 9 -5.421875 C 10.894531 -3.742188 13.296875 -2.90625 16.203125 -2.90625 C 17.835938 -2.90625 19.335938 -3.195312 20.703125 -3.78125 C 22.066406 -4.363281 23.25 -5.21875 24.25 -6.34375 L 26.25 -4.046875 C 25.082031 -2.648438 23.625 -1.582031 21.875 -0.84375 C 20.125 -0.113281 18.195312 0.25 16.09375 0.25 C 13.394531 0.25 11.003906 -0.320312 8.921875 -1.46875 C 6.835938 -2.625 5.210938 -4.21875 4.046875 -6.25 C 2.878906 -8.28125 2.296875 -10.582031 2.296875 -13.15625 C 2.296875 -15.71875 2.851562 -18.015625 3.96875 -20.046875 C 5.09375 -22.078125 6.628906 -23.660156 8.578125 -24.796875 C 10.523438 -25.929688 12.71875 -26.5 15.15625 -26.5 C 17.582031 -26.5 19.757812 -25.929688 21.6875 -24.796875 C 23.625 -23.660156 25.144531 -22.082031 26.25 -20.0625 C 27.351562 -18.050781 27.90625 -15.75 27.90625 -13.15625 Z M 15.15625 -23.453125 C 12.613281 -23.453125 10.484375 -22.640625 8.765625 -21.015625 C 7.054688 -19.398438 6.082031 -17.296875 5.84375 -14.703125 L 24.5 -14.703125 C 24.269531 -17.296875 23.296875 -19.398438 21.578125 -21.015625 C 19.859375 -22.640625 17.71875 -23.453125 15.15625 -23.453125 Z M 15.15625 -23.453125 "/></g></g></g><g fill="#000000" fill-opacity="1"><g transform="translate(806.108863, 1134.355898)"><g><path d="M 37.75 -26.5 C 41.050781 -26.5 43.640625 -25.546875 45.515625 -23.640625 C 47.398438 -21.742188 48.34375 -18.945312 48.34375 -15.25 L 48.34375 0 L 44.796875 0 L 44.796875 -14.90625 C 44.796875 -17.632812 44.132812 -19.710938 42.8125 -21.140625 C 41.5 -22.578125 39.644531 -23.296875 37.25 -23.296875 C 34.519531 -23.296875 32.367188 -22.453125 30.796875 -20.765625 C 29.234375 -19.085938 28.453125 -16.765625 28.453125 -13.796875 L 28.453125 0 L 24.90625 0 L 24.90625 -14.90625 C 24.90625 -17.632812 24.242188 -19.710938 22.921875 -21.140625 C 21.609375 -22.578125 19.734375 -23.296875 17.296875 -23.296875 C 14.597656 -23.296875 12.457031 -22.453125 10.875 -20.765625 C 9.289062 -19.085938 8.5 -16.765625 8.5 -13.796875 L 8.5 0 L 4.953125 0 L 4.953125 -26.296875 L 8.34375 -26.296875 L 8.34375 -21.5 C 9.28125 -23.101562 10.582031 -24.335938 12.25 -25.203125 C 13.914062 -26.066406 15.832031 -26.5 18 -26.5 C 20.195312 -26.5 22.101562 -26.03125 23.71875 -25.09375 C 25.34375 -24.164062 26.550781 -22.785156 27.34375 -20.953125 C 28.3125 -22.679688 29.703125 -24.035156 31.515625 -25.015625 C 33.335938 -26.003906 35.414062 -26.5 37.75 -26.5 Z M 37.75 -26.5 "/></g></g></g><g fill="#000000" fill-opacity="1"><g transform="translate(874.000634, 1134.355898)"><g><path d="M 27.84375 -12.046875 L 5.84375 -12.046875 C 6.050781 -9.316406 7.101562 -7.109375 9 -5.421875 C 10.894531 -3.742188 13.296875 -2.90625 16.203125 -2.90625 C 17.835938 -2.90625 19.335938 -3.195312 20.703125 -3.78125 C 22.066406 -4.363281 23.25 -5.21875 24.25 -6.34375 L 26.25 -4.046875 C 25.082031 -2.648438 23.625 -1.582031 21.875 -0.84375 C 20.125 -0.113281 18.195312 0.25 16.09375 0.25 C 13.394531 0.25 11.003906 -0.320312 8.921875 -1.46875 C 6.835938 -2.625 5.210938 -4.21875 4.046875 -6.25 C 2.878906 -8.28125 2.296875 -10.582031 2.296875 -13.15625 C 2.296875 -15.71875 2.851562 -18.015625 3.96875 -20.046875 C 5.09375 -22.078125 6.628906 -23.660156 8.578125 -24.796875 C 10.523438 -25.929688 12.71875 -26.5 15.15625 -26.5 C 17.582031 -26.5 19.757812 -25.929688 21.6875 -24.796875 C 23.625 -23.660156 25.144531 -22.082031 26.25 -20.0625 C 27.351562 -18.050781 27.90625 -15.75 27.90625 -13.15625 Z M 15.15625 -23.453125 C 12.613281 -23.453125 10.484375 -22.640625 8.765625 -21.015625 C 7.054688 -19.398438 6.082031 -17.296875 5.84375 -14.703125 L 24.5 -14.703125 C 24.269531 -17.296875 23.296875 -19.398438 21.578125 -21.015625 C 19.859375 -22.640625 17.71875 -23.453125 15.15625 -23.453125 Z M 15.15625 -23.453125 "/></g></g></g><g fill="#000000" fill-opacity="1"><g transform="translate(919.045972, 1134.355898)"><g><path d="M 18.34375 -26.5 C 21.644531 -26.5 24.269531 -25.539062 26.21875 -23.625 C 28.175781 -21.707031 29.15625 -18.914062 29.15625 -15.25 L 29.15625 0 L 25.59375 0 L 25.59375 -14.90625 C 25.59375 -17.632812 24.910156 -19.710938 23.546875 -21.140625 C 22.179688 -22.578125 20.234375 -23.296875 17.703125 -23.296875 C 14.867188 -23.296875 12.625 -22.453125 10.96875 -20.765625 C 9.320312 -19.085938 8.5 -16.765625 8.5 -13.796875 L 8.5 0 L 4.953125 0 L 4.953125 -26.296875 L 8.34375 -26.296875 L 8.34375 -21.453125 C 9.3125 -23.046875 10.65625 -24.285156 12.375 -25.171875 C 14.09375 -26.054688 16.082031 -26.5 18.34375 -26.5 Z M 18.34375 -26.5 "/></g></g></g><g fill="#000000" fill-opacity="1"><g transform="translate(967.740716, 1134.355898)"><g><path d="M 18.796875 -1.59375 C 18.128906 -1 17.300781 -0.539062 16.3125 -0.21875 C 15.332031 0.0898438 14.3125 0.25 13.25 0.25 C 10.78125 0.25 8.878906 -0.414062 7.546875 -1.75 C 6.210938 -3.082031 5.546875 -4.96875 5.546875 -7.40625 L 5.546875 -23.296875 L 0.84375 -23.296875 L 0.84375 -26.296875 L 5.546875 -26.296875 L 5.546875 -32.046875 L 9.09375 -32.046875 L 9.09375 -26.296875 L 17.09375 -26.296875 L 17.09375 -23.296875 L 9.09375 -23.296875 L 9.09375 -7.59375 C 9.09375 -6.03125 9.484375 -4.835938 10.265625 -4.015625 C 11.054688 -3.203125 12.1875 -2.796875 13.65625 -2.796875 C 14.382812 -2.796875 15.085938 -2.910156 15.765625 -3.140625 C 16.453125 -3.378906 17.046875 -3.71875 17.546875 -4.15625 Z M 18.796875 -1.59375 "/></g></g></g></svg>